<svg width="76" height="61" viewBox="0 0 76 61" fill="none" xmlns="http://www.w3.org/2000/svg">
<g clip-path="url(#clip0_2274_3206)">
<path d="M47.5 11.4C49.0117 11.4 50.4616 10.7995 51.5305 9.73051C52.5995 8.66155 53.2 7.21173 53.2 5.7C53.2 4.18827 52.5995 2.73845 51.5305 1.66949C50.4616 0.600534 49.0117 0 47.5 0C45.9883 0 44.5385 0.600534 43.4695 1.66949C42.4005 2.73845 41.8 4.18827 41.8 5.7C41.8 7.21173 42.4005 8.66155 43.4695 9.73051C44.5385 10.7995 45.9883 11.4 47.5 11.4ZM50.73 19L43.3913 13.205C41.3369 11.59 38.4394 11.5662 36.3731 13.1694L26.505 20.7931C22.8594 23.6194 23.1206 29.2006 27.0156 31.6706L34.2 36.2306V49.4C34.2 51.5019 35.8981 53.2 38 53.2C40.1019 53.2 41.8 51.5019 41.8 49.4V34.2C41.8 32.9294 41.1706 31.7419 40.1138 31.0412L35.0312 27.6569L42.1919 21.8975L47.025 25.7687C47.7019 26.3031 48.5331 26.6 49.4 26.6H57C59.1019 26.6 60.8 24.9019 60.8 22.8C60.8 20.6981 59.1019 19 57 19H50.73ZM6.65 45.6C6.65 43.3324 7.5508 41.1577 9.15424 39.5542C10.7577 37.9508 12.9324 37.05 15.2 37.05C17.4676 37.05 19.6423 37.9508 21.2458 39.5542C22.8492 41.1577 23.75 43.3324 23.75 45.6C23.75 47.8676 22.8492 50.0423 21.2458 51.6458C19.6423 53.2492 17.4676 54.15 15.2 54.15C12.9324 54.15 10.7577 53.2492 9.15424 51.6458C7.5508 50.0423 6.65 47.8676 6.65 45.6ZM30.4 45.6C30.4 41.5687 28.7986 37.7025 25.948 34.852C23.0975 32.0014 19.2313 30.4 15.2 30.4C11.1687 30.4 7.30253 32.0014 4.45198 34.852C1.60142 37.7025 0 41.5687 0 45.6C0 49.6313 1.60142 53.4975 4.45198 56.348C7.30253 59.1986 11.1687 60.8 15.2 60.8C19.2313 60.8 23.0975 59.1986 25.948 56.348C28.7986 53.4975 30.4 49.6313 30.4 45.6ZM52.25 45.6C52.25 43.3324 53.1508 41.1577 54.7542 39.5542C56.3577 37.9508 58.5324 37.05 60.8 37.05C63.0676 37.05 65.2423 37.9508 66.8458 39.5542C68.4492 41.1577 69.35 43.3324 69.35 45.6C69.35 47.8676 68.4492 50.0423 66.8458 51.6458C65.2423 53.2492 63.0676 54.15 60.8 54.15C58.5324 54.15 56.3577 53.2492 54.7542 51.6458C53.1508 50.0423 52.25 47.8676 52.25 45.6ZM76 45.6C76 41.5687 74.3986 37.7025 71.548 34.852C68.6975 32.0014 64.8313 30.4 60.8 30.4C56.7687 30.4 52.9025 32.0014 50.052 34.852C47.2014 37.7025 45.6 41.5687 45.6 45.6C45.6 49.6313 47.2014 53.4975 50.052 56.348C52.9025 59.1986 56.7687 60.8 60.8 60.8C64.8313 60.8 68.6975 59.1986 71.548 56.348C74.3986 53.4975 76 49.6313 76 45.6Z" fill="#2AA7FF"/>
</g>
<defs>
<clipPath id="clip0_2274_3206">
<rect width="76" height="60.8" fill="white"/>
</clipPath>
</defs>
</svg>
