<svg width="55" height="55" viewBox="0 0 55 55" fill="none" xmlns="http://www.w3.org/2000/svg">
<g clip-path="url(#clip0_2311_850)">
<path d="M15.1191 12.4147L12.3664 20.2827H43.3531L40.6004 12.4147C40.1258 11.0647 38.8496 10.1577 37.4152 10.1577H18.3043C16.8699 10.1577 15.5937 11.0647 15.1191 12.4147ZM5.0363 20.789L8.7488 10.1894C10.1726 6.12881 14.0011 3.40771 18.3043 3.40771H37.4152C41.7183 3.40771 45.5469 6.12881 46.9707 10.1894L50.6832 20.789C53.1301 21.8015 54.8597 24.2167 54.8597 27.0327V42.2202V47.2827C54.8597 49.1495 53.3515 50.6577 51.4847 50.6577H48.1097C46.2429 50.6577 44.7347 49.1495 44.7347 47.2827V42.2202H10.9847V47.2827C10.9847 49.1495 9.47654 50.6577 7.60974 50.6577H4.23474C2.36794 50.6577 0.859741 49.1495 0.859741 47.2827V42.2202V27.0327C0.859741 24.2167 2.58943 21.8015 5.0363 20.789ZM14.3597 30.4077C14.3597 29.5126 14.0042 28.6542 13.3712 28.0212C12.7383 27.3883 11.8798 27.0327 10.9847 27.0327C10.0896 27.0327 9.23119 27.3883 8.59826 28.0212C7.96532 28.6542 7.60974 29.5126 7.60974 30.4077C7.60974 31.3028 7.96532 32.1613 8.59826 32.7942C9.23119 33.4271 10.0896 33.7827 10.9847 33.7827C11.8798 33.7827 12.7383 33.4271 13.3712 32.7942C14.0042 32.1613 14.3597 31.3028 14.3597 30.4077ZM44.7347 33.7827C45.6298 33.7827 46.4883 33.4271 47.1212 32.7942C47.7542 32.1613 48.1097 31.3028 48.1097 30.4077C48.1097 29.5126 47.7542 28.6542 47.1212 28.0212C46.4883 27.3883 45.6298 27.0327 44.7347 27.0327C43.8396 27.0327 42.9812 27.3883 42.3483 28.0212C41.7153 28.6542 41.3597 29.5126 41.3597 30.4077C41.3597 31.3028 41.7153 32.1613 42.3483 32.7942C42.9812 33.4271 43.8396 33.7827 44.7347 33.7827Z" fill="#2AA7FF"/>
</g>
<defs>
<clipPath id="clip0_2311_850">
<rect width="54" height="54" fill="white" transform="translate(0.859741 0.0327148)"/>
</clipPath>
</defs>
</svg>
