<svg width="68" height="60" viewBox="0 0 68 60" fill="none" xmlns="http://www.w3.org/2000/svg">
<path d="M67.4766 29.9414C67.4766 32.0508 65.7188 33.7031 63.7266 33.7031H59.9766L60.0586 52.4766C60.0586 52.793 60.0352 53.1094 60 53.4258V55.3125C60 57.9023 57.9023 60 55.3125 60H53.4375C53.3086 60 53.1797 60 53.0508 59.9883C52.8867 60 52.7227 60 52.5586 60H48.75H45.9375C43.3477 60 41.25 57.9023 41.25 55.3125V52.5V45C41.25 42.9258 39.5742 41.25 37.5 41.25H30C27.9258 41.25 26.25 42.9258 26.25 45V52.5V55.3125C26.25 57.9023 24.1523 60 21.5625 60H18.75H15.0117C14.8359 60 14.6602 59.9883 14.4844 59.9766C14.3438 59.9883 14.2031 60 14.0625 60H12.1875C9.59766 60 7.5 57.9023 7.5 55.3125V42.1875C7.5 42.082 7.5 41.9648 7.51172 41.8594V33.7031H3.75C1.64062 33.7031 0 32.0625 0 29.9414C0 28.8867 0.351562 27.9492 1.17188 27.1289L31.2188 0.9375C32.0391 0.117188 32.9766 0 33.7969 0C34.6172 0 35.5547 0.234375 36.2578 0.820312L66.1875 27.1289C67.125 27.9492 67.5938 28.8867 67.4766 29.9414Z" fill="#2AA7FF"/>
</svg>
