<svg width="54" height="39" viewBox="0 0 54 39" fill="none" xmlns="http://www.w3.org/2000/svg">
<path d="M30.375 4.10791C30.375 3.21281 30.0194 2.35436 29.3865 1.72142C28.7535 1.08849 27.8951 0.73291 27 0.73291C26.1049 0.73291 25.2465 1.08849 24.6135 1.72142C23.9806 2.35436 23.625 3.21281 23.625 4.10791C23.625 5.00302 23.9806 5.86146 24.6135 6.4944C25.2465 7.12733 26.1049 7.48291 27 7.48291C27.8951 7.48291 28.7535 7.12733 29.3865 6.4944C30.0194 5.86146 30.375 5.00302 30.375 4.10791ZM12.15 15.5829C13.0451 15.5829 13.9036 15.2273 14.5365 14.5944C15.1694 13.9615 15.525 13.103 15.525 12.2079C15.525 11.3128 15.1694 10.4544 14.5365 9.82143C13.9036 9.18849 13.0451 8.83291 12.15 8.83291C11.2549 8.83291 10.3965 9.18849 9.76351 9.82143C9.13058 10.4544 8.775 11.3128 8.775 12.2079C8.775 13.103 9.13058 13.9615 9.76351 14.5944C10.3965 15.2273 11.2549 15.5829 12.15 15.5829ZM2.7 33.1329C1.20656 33.1329 0 34.3395 0 35.8329C0 37.3264 1.20656 38.5329 2.7 38.5329H51.3C52.7934 38.5329 54 37.3264 54 35.8329C54 34.3395 52.7934 33.1329 51.3 33.1329H2.7ZM41.85 15.5829C42.7451 15.5829 43.6035 15.2273 44.2365 14.5944C44.8694 13.9615 45.225 13.103 45.225 12.2079C45.225 11.3128 44.8694 10.4544 44.2365 9.82143C43.6035 9.18849 42.7451 8.83291 41.85 8.83291C40.9549 8.83291 40.0965 9.18849 39.4635 9.82143C38.8306 10.4544 38.475 11.3128 38.475 12.2079C38.475 13.103 38.8306 13.9615 39.4635 14.5944C40.0965 15.2273 40.9549 15.5829 41.85 15.5829ZM16.875 24.4845L19.1447 28.6948C19.6762 29.682 20.8997 30.0448 21.8869 29.5217C22.8741 28.9985 23.2369 27.7667 22.7138 26.7795L19.6509 21.0842C19.7944 20.9407 19.9209 20.7804 20.0137 20.5948L22.275 16.3845V20.9829C22.275 22.4764 23.4816 23.6829 24.975 23.6829H29.025C30.5184 23.6829 31.725 22.4764 31.725 20.9829V16.3845L33.9947 20.5948C34.0959 20.7804 34.2141 20.9407 34.3575 21.0842L31.2947 26.7795C30.7631 27.7667 31.1344 28.9901 32.1216 29.5217C33.1087 30.0532 34.3322 29.682 34.8638 28.6948L37.125 24.4845V27.7329C37.125 29.2264 38.3316 30.4329 39.825 30.4329H43.875C45.3684 30.4329 46.575 29.2264 46.575 27.7329V24.4845L48.8447 28.6948C49.3763 29.682 50.5997 30.0448 51.5869 29.5217C52.5741 28.9985 52.9369 27.7667 52.4137 26.7795L49.2159 20.8479C47.925 18.4432 45.4106 16.9414 42.6769 16.9414H41.0231C39.6478 16.9414 38.3316 17.321 37.1925 18.0045L34.3575 12.7479C33.0666 10.3432 30.5522 8.84135 27.8184 8.84135H26.1731C23.4394 8.84135 20.9334 10.3432 19.6341 12.7479L16.7991 18.0045C15.66 17.321 14.3437 16.9414 12.9684 16.9414H11.3231C8.58937 16.9414 6.08344 18.4432 4.78406 20.8479L1.59469 26.771C1.06312 27.7582 1.43438 28.9817 2.42156 29.5132C3.40875 30.0448 4.63219 29.6735 5.16375 28.6863L7.425 24.4845V27.7329C7.425 29.2264 8.63156 30.4329 10.125 30.4329H14.175C15.6684 30.4329 16.875 29.2264 16.875 27.7329V24.4845Z" fill="#2AA7FF"/>
</svg>
