<svg width="48" height="62" viewBox="0 0 48 62" fill="none" xmlns="http://www.w3.org/2000/svg">
<path d="M26.8757 60.5719C33.1003 52.782 47.2969 33.9018 47.2969 23.2969C47.2969 10.4351 36.8618 0 24 0C11.1382 0 0.703125 10.4351 0.703125 23.2969C0.703125 33.9018 14.8997 52.782 21.1243 60.5719C22.6167 62.4283 25.3833 62.4283 26.8757 60.5719ZM24 15.5312C26.0596 15.5312 28.0348 16.3494 29.4911 17.8057C30.9475 19.2621 31.7656 21.2373 31.7656 23.2969C31.7656 25.3564 30.9475 27.3317 29.4911 28.788C28.0348 30.2443 26.0596 31.0625 24 31.0625C21.9404 31.0625 19.9652 30.2443 18.5089 28.788C17.0525 27.3317 16.2344 25.3564 16.2344 23.2969C16.2344 21.2373 17.0525 19.2621 18.5089 17.8057C19.9652 16.3494 21.9404 15.5312 24 15.5312Z" fill="#2AA7FF"/>
</svg>
