<svg width="62" height="62" viewBox="0 0 62 62" fill="none" xmlns="http://www.w3.org/2000/svg">
<path d="M61.9758 32.3805C58.8152 33.434 55.5094 34.0516 52.1672 34.209C53.2812 21.4578 48.3527 9.48164 39.6703 1.22305C52.5668 4.97695 62 16.8926 62 31C62 31.4602 61.9879 31.9203 61.9758 32.3805ZM61.5035 36.5824C60.8012 40.4574 59.3723 44.0902 57.3621 47.3234C45.5555 53.1965 31 52.482 19.593 44.3566C22.4629 39.973 26.3016 36.1586 31.0363 33.2402C40.7117 38.4715 51.6344 39.3918 61.5035 36.5824ZM32.9254 29.8617C32.6227 18.8543 27.9484 8.94883 20.5859 1.8043C23.8312 0.629687 27.343 0 31 0C31.327 0 31.6418 0 31.9566 0.0121094C42.952 7.30195 49.6 20.259 48.268 34.1969C43.0488 33.9062 37.8055 32.4895 32.9133 29.8496L32.9254 29.8617ZM16.7109 3.4875C19.2055 5.70352 21.3973 8.25859 23.2137 11.068C11.6129 16.4809 3.70547 26.7375 0.883984 38.3746C0.302734 36.0133 0 33.543 0 31C0 19.0359 6.78125 8.6582 16.7109 3.4875ZM25.1391 14.4465C27.5004 19.1207 28.893 24.3641 29.0504 29.9102C19.6777 35.6742 13.4293 44.6715 10.9227 54.6133C7.99219 52.1188 5.52187 49.0914 3.68125 45.6766C4.49258 32.5137 12.3879 20.259 25.127 14.4465H25.1391ZM31 62C24.8605 62 19.1328 60.2199 14.3133 57.132C14.9914 53.8625 16.1055 50.702 17.6313 47.723C28.118 55.0492 40.9418 56.7687 52.4336 53.4023C46.8633 58.7305 39.3191 62 31 62Z" fill="#2AA7FF"/>
</svg>
