<svg width="69" height="55" viewBox="0 0 69 55" fill="none" xmlns="http://www.w3.org/2000/svg">
<path d="M0 10.4765V47.5879C0 49.7442 1.2099 51.7806 3.23438 52.5353C13.6562 56.4286 24.0781 53.7692 34.5 51.1098C44.0594 48.678 53.6187 46.2343 63.1661 48.8457C65.9213 49.6004 69 47.7077 69 44.8447V7.74522C69 5.58897 67.7901 3.55251 65.7656 2.79782C55.3438 -1.09541 44.9219 1.56397 34.5 4.22334C24.9406 6.65511 15.3812 9.08688 5.83385 6.47543C3.06667 5.72074 0 7.61345 0 10.4765ZM34.5 39.1666C29.2052 39.1666 24.9167 34.0155 24.9167 27.6666C24.9167 21.3176 29.2052 16.1666 34.5 16.1666C39.7948 16.1666 44.0833 21.3176 44.0833 27.6666C44.0833 34.0155 39.7948 39.1666 34.5 39.1666ZM7.66667 39.1666C11.8953 39.1666 15.3333 42.6046 15.3333 46.8332H7.66667V39.1666ZM15.3333 14.2499C15.3333 18.4786 11.8953 21.9166 7.66667 21.9166V14.2499H15.3333ZM61.3333 33.4166V41.0832H53.6667C53.6667 36.8546 57.1047 33.4166 61.3333 33.4166ZM53.6667 8.49991H61.3333V16.1666C57.1047 16.1666 53.6667 12.7286 53.6667 8.49991Z" fill="#2AA7FF"/>
</svg>
