<svg width="65" height="56" viewBox="0 0 65 56" fill="none" xmlns="http://www.w3.org/2000/svg">
<path d="M6.04297 33.1369L28.9834 54.5538C29.9355 55.4425 31.1924 55.9376 32.5 55.9376C33.8076 55.9376 35.0645 55.4425 36.0166 54.5538L58.957 33.1369C62.8164 29.5441 65 24.504 65 19.2355V18.4992C65 9.62513 58.5889 2.05872 49.8418 0.598763C44.0527 -0.366081 38.1621 1.52552 34.0234 5.66419L32.5 7.18763L30.9766 5.66419C26.8379 1.52552 20.9473 -0.366081 15.1582 0.598763C6.41113 2.05872 0 9.62513 0 18.4992V19.2355C0 24.504 2.18359 29.5441 6.04297 33.1369Z" fill="#2AA7FF"/>
</svg>
