<svg width="55" height="49" viewBox="0 0 55 49" fill="none" xmlns="http://www.w3.org/2000/svg">
<path d="M54.841 23.9858C54.841 25.6733 53.4347 26.9952 51.841 26.9952H48.841L48.9066 42.014C48.9066 42.2671 48.8879 42.5202 48.8597 42.7733V44.2827C48.8597 46.3546 47.1816 48.0327 45.1097 48.0327H43.6097C43.5066 48.0327 43.4035 48.0327 43.3004 48.0233C43.1691 48.0327 43.0379 48.0327 42.9066 48.0327H39.8597H37.6097C35.5379 48.0327 33.8597 46.3546 33.8597 44.2827V42.0327V36.0327C33.8597 34.3733 32.5191 33.0327 30.8597 33.0327H24.8597C23.2004 33.0327 21.8597 34.3733 21.8597 36.0327V42.0327V44.2827C21.8597 46.3546 20.1816 48.0327 18.1097 48.0327H15.8597H12.8691C12.7285 48.0327 12.5879 48.0233 12.4472 48.014C12.3347 48.0233 12.2222 48.0327 12.1097 48.0327H10.6097C8.53787 48.0327 6.85974 46.3546 6.85974 44.2827V33.7827C6.85974 33.6983 6.85974 33.6046 6.86912 33.5202V26.9952H3.85974C2.17224 26.9952 0.859741 25.6827 0.859741 23.9858C0.859741 23.1421 1.14099 22.3921 1.79724 21.7358L25.8347 0.782715C26.491 0.126465 27.241 0.0327148 27.8972 0.0327148C28.5535 0.0327148 29.3035 0.220215 29.866 0.688965L53.8097 21.7358C54.5597 22.3921 54.9347 23.1421 54.841 23.9858Z" fill="#2AA7FF"/>
</svg>
