<svg width="55" height="49" viewBox="0 0 55 49" fill="none" xmlns="http://www.w3.org/2000/svg">
<path d="M51.841 26.9952C53.4347 26.9952 54.841 25.6827 54.841 23.9858C54.9347 23.1421 54.5597 22.3921 53.8097 21.7358L29.8754 0.688965C29.3129 0.220215 28.5629 0.0327148 27.9066 0.0327148C27.2504 0.0327148 26.5004 0.126465 25.8441 0.782715L1.79724 21.7358C1.14099 22.3921 0.859741 23.1421 0.859741 23.9858C0.859741 25.6733 2.17224 26.9952 3.85974 26.9952H6.85974V42.0327C6.85974 45.3421 9.55037 48.0327 12.8597 48.0327H42.9066C46.2347 48.0327 48.9254 45.3327 48.9066 42.0046L48.841 26.9858H51.841V26.9952ZM24.8597 19.5327C24.8597 18.7077 25.5347 18.0327 26.3597 18.0327H29.3597C30.1847 18.0327 30.8597 18.7077 30.8597 19.5327V24.0327H35.3597C36.1847 24.0327 36.8597 24.7077 36.8597 25.5327V28.5327C36.8597 29.3577 36.1847 30.0327 35.3597 30.0327H30.8597V34.5327C30.8597 35.3577 30.1847 36.0327 29.3597 36.0327H26.3597C25.5347 36.0327 24.8597 35.3577 24.8597 34.5327V30.0327H20.3597C19.5347 30.0327 18.8597 29.3577 18.8597 28.5327V25.5327C18.8597 24.7077 19.5347 24.0327 20.3597 24.0327H24.8597V19.5327Z" fill="#2AA7FF"/>
</svg>
