<svg width="52" height="70" viewBox="0 0 52 70" fill="none" xmlns="http://www.w3.org/2000/svg">
<path d="M23.5353 0.744824C25.0249 -0.243717 26.9749 -0.243717 28.4644 0.744824L30.8749 2.3292C31.6874 2.85732 32.6353 3.11462 33.5967 3.06045L36.4811 2.88441C38.2686 2.77607 39.9478 3.75107 40.7467 5.34899L42.0467 7.93545C42.4801 8.80212 43.1842 9.49274 44.0374 9.92607L46.6509 11.2396C48.2488 12.0386 49.2238 13.7177 49.1155 15.5052L48.9394 18.3896C48.8853 19.3511 49.1426 20.3125 49.6707 21.1115L51.2686 23.5219C52.2572 25.0115 52.2572 26.9615 51.2686 28.4511L49.6707 30.875C49.1426 31.6875 48.8853 32.6355 48.9394 33.5969L49.1155 36.4813C49.2238 38.2688 48.2488 39.948 46.6509 40.7469L44.0644 42.0469C43.1978 42.4802 42.5072 43.1844 42.0738 44.0375L40.7603 46.6511C39.9613 48.249 38.2822 49.224 36.4947 49.1157L33.6103 48.9396C32.6488 48.8855 31.6874 49.1427 30.8884 49.6709L28.478 51.2688C26.9884 52.2573 25.0384 52.2573 23.5488 51.2688L21.1249 49.6709C20.3124 49.1427 19.3644 48.8855 18.403 48.9396L15.5186 49.1157C13.7311 49.224 12.0519 48.249 11.253 46.6511L9.95299 44.0646C9.51966 43.198 8.81549 42.5073 7.96236 42.074L5.34882 40.7605C3.7509 39.9615 2.7759 38.2823 2.88424 36.4948L3.06028 33.6105C3.11445 32.649 2.85716 31.6875 2.32903 30.8886L0.744655 28.4646C-0.243887 26.975 -0.243887 25.025 0.744655 23.5355L2.32903 21.125C2.85716 20.3125 3.11445 19.3646 3.06028 18.4032L2.88424 15.5188C2.7759 13.7313 3.7509 12.0521 5.34882 11.2532L7.93528 9.95316C8.80195 9.50628 9.50611 8.80212 9.93945 7.93545L11.2394 5.34899C12.0384 3.75107 13.7176 2.77607 15.5051 2.88441L18.3894 3.06045C19.3509 3.11462 20.3124 2.85732 21.1113 2.3292L23.5353 0.744824ZM36.8332 26C36.8332 23.1269 35.6918 20.3714 33.6602 18.3397C31.6285 16.3081 28.873 15.1667 25.9999 15.1667C23.1267 15.1667 20.3712 16.3081 18.3395 18.3397C16.3079 20.3714 15.1665 23.1269 15.1665 26C15.1665 28.8732 16.3079 31.6287 18.3395 33.6604C20.3712 35.692 23.1267 36.8334 25.9999 36.8334C28.873 36.8334 31.6285 35.692 33.6602 33.6604C35.6918 31.6287 36.8332 28.8732 36.8332 26ZM0.175905 59.8271L6.01236 45.9469C6.03945 45.9604 6.05299 45.974 6.06653 46.0011L7.36653 48.5875C8.9509 51.7292 12.2415 53.6386 15.7624 53.4355L18.6467 53.2594C18.6738 53.2594 18.7144 53.2594 18.7415 53.2865L21.1519 54.8844C21.8426 55.3313 22.5738 55.6834 23.3322 55.9271L18.2405 68.0198C17.929 68.7646 17.2384 69.2657 16.4394 69.3334C15.6405 69.4011 14.8686 69.0355 14.4353 68.3584L10.0749 61.6823L2.47799 62.8063C1.70611 62.9146 0.934238 62.6032 0.446738 61.9938C-0.0407618 61.3844 -0.135553 60.5448 0.162363 59.8271H0.175905ZM33.7592 68.0063L28.6676 55.9271C29.4259 55.6834 30.1572 55.3448 30.8478 54.8844L33.2582 53.2865C33.2853 53.273 33.3124 53.2594 33.353 53.2594L36.2374 53.4355C39.7582 53.6386 43.0488 51.7292 44.6332 48.5875L45.9332 46.0011C45.9467 45.974 45.9603 45.9604 45.9874 45.9469L51.8374 59.8271C52.1353 60.5448 52.027 61.3709 51.553 61.9938C51.079 62.6167 50.2936 62.9282 49.5217 62.8063L41.9249 61.6823L37.5644 68.3448C37.1311 69.0219 36.3592 69.3875 35.5603 69.3198C34.7613 69.2521 34.0707 68.7375 33.7592 68.0063Z" fill="#2AA7FF"/>
</svg>
