<svg width="70" height="48" viewBox="0 0 70 48" fill="none" xmlns="http://www.w3.org/2000/svg">
<path d="M7.77778 0.777832C3.48785 0.777832 0 4.26568 0 8.55561V39.6667C0 43.9567 3.48785 47.4445 7.77778 47.4445H62.2222C66.5122 47.4445 70 43.9567 70 39.6667V8.55561C70 4.26568 66.5122 0.777832 62.2222 0.777832H7.77778ZM15.5556 39.6667H7.77778V31.8889C12.0677 31.8889 15.5556 35.3768 15.5556 39.6667ZM7.77778 16.3334V8.55561H15.5556C15.5556 12.8455 12.0677 16.3334 7.77778 16.3334ZM54.4444 39.6667C54.4444 35.3768 57.9323 31.8889 62.2222 31.8889V39.6667H54.4444ZM62.2222 16.3334C57.9323 16.3334 54.4444 12.8455 54.4444 8.55561H62.2222V16.3334ZM35 12.4445C38.0942 12.4445 41.0617 13.6737 43.2496 15.8616C45.4375 18.0495 46.6667 21.017 46.6667 24.1112C46.6667 27.2054 45.4375 30.1728 43.2496 32.3607C41.0617 34.5487 38.0942 35.7778 35 35.7778C31.9058 35.7778 28.9383 34.5487 26.7504 32.3607C24.5625 30.1728 23.3333 27.2054 23.3333 24.1112C23.3333 21.017 24.5625 18.0495 26.7504 15.8616C28.9383 13.6737 31.9058 12.4445 35 12.4445Z" fill="#2AA7FF"/>
</svg>
