<svg width="56" height="58" viewBox="0 0 56 58" fill="none" xmlns="http://www.w3.org/2000/svg">
<path d="M29.3778 0.36123C28.902 0.145996 28.3922 0.0327148 27.8598 0.0327148C27.3274 0.0327148 26.8176 0.145996 26.3418 0.36123L5.01096 9.4124C2.51878 10.4659 0.660965 12.9241 0.672293 15.8921C0.728933 27.1296 5.35081 47.6901 24.8692 57.0358C26.761 57.9421 28.9586 57.9421 30.8504 57.0358C50.3688 47.6901 54.9907 27.1296 55.0473 15.8921C55.0586 12.9241 53.2008 10.4659 50.7086 9.4124L29.3778 0.36123ZM17.0867 32.4538C17.6305 32.5897 18.2082 32.6577 18.7973 32.6577C22.7961 32.6577 26.0473 29.4065 26.0473 25.4077V18.1577H31.0543C32.425 18.1577 33.6824 18.928 34.2942 20.1628L35.1098 21.7827H42.3598C43.3567 21.7827 44.1723 22.5983 44.1723 23.5952V27.2202C44.1723 32.2272 40.1168 36.2827 35.1098 36.2827H29.6723V42.0261C29.6723 42.853 29.0039 43.5327 28.1657 43.5327C27.9617 43.5327 27.7578 43.4874 27.5766 43.4081L16.3957 38.6163C15.6481 38.2991 15.1723 37.5628 15.1723 36.7585C15.1723 36.4413 15.2403 36.1354 15.3875 35.8522L17.0867 32.4538ZM16.9848 18.1577H21.516H22.4223V21.7827V25.4077C22.4223 27.4128 20.8024 29.0327 18.7973 29.0327C16.7922 29.0327 15.1723 27.4128 15.1723 25.4077V19.9702C15.1723 18.9733 15.9879 18.1577 16.9848 18.1577ZM31.4848 23.5952C31.4848 23.1145 31.2938 22.6535 30.9539 22.3136C30.614 21.9737 30.153 21.7827 29.6723 21.7827C29.1916 21.7827 28.7306 21.9737 28.3907 22.3136C28.0508 22.6535 27.8598 23.1145 27.8598 23.5952C27.8598 24.0759 28.0508 24.5369 28.3907 24.8768C28.7306 25.2168 29.1916 25.4077 29.6723 25.4077C30.153 25.4077 30.614 25.2168 30.9539 24.8768C31.2938 24.5369 31.4848 24.0759 31.4848 23.5952Z" fill="#2AA7FF"/>
</svg>
